<svg xmlns="http://www.w3.org/2000/svg" xmlns:xlink="http://www.w3.org/1999/xlink" width="100" height="100" viewBox="0 0 100 100"><g transform="translate(50 50) scale(0.69 0.69) rotate(30) translate(-50 -50)" style="fill:#59191f"><svg fill="#59191f" xmlns="http://www.w3.org/2000/svg" data-name="Слой 1" viewBox="0 0 100 100" x="0px" y="0px"><title>2-01-01-01-01-01-01-01-01-01-01-01-01-01-01-01-01-01-01-01-01</title><g><path d="M61.525,38.21279c0.08675-4.021.184-7.52792,0.22918-11.03553,0.0231-1.79435.42483-2.16991,2.10148-1.34834,2.00152,0.98077,3.88478,2.2027,5.8202,3.31856q9.53339,5.49643,19.06247,11.0003c1.46375,0.85,2.85788,1.819,4.29693,2.71253a2.02853,2.02853,0,0,1,1.07961,2.59962,3.11116,3.11116,0,0,0,1.38341,3.58329c0.58773,0.40868,1.48745,1.06906,1.43818,1.52871a2.8547,2.8547,0,0,1-1.37081,1.88594A27.37409,27.37409,0,0,0,89.08,56.87411c-2.12382,2.04607-4.98735,3.30015-7.29247,5.18759-3.99673,3.27253-7.81228,6.76636-11.70045,10.17121a3.13677,3.13677,0,0,0-.19281.2907c-0.65862.73681-1.47844,2.16272-1.95074,2.05614a5.70506,5.70506,0,0,1-2.46326-1.996q-2.719-3.06969-5.2759-6.28086a3.21679,3.21679,0,0,1-.6808-1.86819c0.00887-1.93951.124-3.88409,0.31636-5.81487a1.00817,1.00817,0,0,0-1.12578-1.34827c-1.94053.02987-3.88667,0.02866-5.81926,0.182-6.55917.52037-13.10789,1.18343-19.67136,1.63582-5.4563.37609-10.93572,0.42678-16.38855,0.83823a44.78433,44.78433,0,0,0-6.36748,1.39406c-2.03117.46036-2.076,0.18792-2.66115-1.81135-0.738-2.52159-1.1725-5.24722-3.4386-7.12447a3.49391,3.49391,0,0,1-.84027-2.33578c-0.05914-1.3098.31427-2.6397,0.24975-3.94854a54.77132,54.77132,0,0,0-.67331-6.34473,1.63882,1.63882,0,0,1,1.50773-2.14168,69.79022,69.79022,0,0,1,8.92624-.66329c7.89717,0.10536,15.79042.4817,23.6875,0.62553,5.81678,0.10593,11.63788-.03917,17.45552.0401C56.89344,37.6476,59.10166,37.99213,61.525,38.21279Zm3.34184-9.30552a19.86972,19.86972,0,0,0-.32167,2.24927c-0.03423,2.466-.01,4.93264-0.02789,7.39891-0.009,1.23973-.49083,2.04181-1.905,1.90894-1.446-.13587-2.89141-0.32975-4.34065-0.36974-7.15631-.19748-14.31423-0.33585-21.47074-0.5271C30.26963,39.393,23.74,39.06471,17.2084,39.027a90.58324,90.58324,0,0,0-9.95525.75372A1.84614,1.84614,0,0,0,5.96164,40.9974c-0.089,2.32656.08314,4.66189,0.04256,6.99205-0.02193,1.2592.52575,1.64814,1.676,1.6712,2.64929,0.05312,5.29677.2068,7.94607,0.2458,2.99421,0.0441,5.98981.02988,8.98443,0.00083C29.96006,49.85541,35.309,49.76,40.6583,49.7088c3.409-.03266,6.81839-0.01356,10.22758-0.027,2.94129-.01159,5.88565-0.12291,8.82242-0.0172,1.37713,0.04958,2.7895.5707,2.9614,2.248,0.256,2.498.41723,5.01145,0.47939,7.52178,0.0602,2.43094.54256,2.87654,2.7384,1.73018a70.72661,70.72661,0,0,0,6.46242-3.94617c4.84164-3.23113,9.64713-6.5169,14.44416-9.81413,1.28218-.8813,2.481-1.88387,3.98283-3.03338C82.61928,38.12112,73.85448,33.72116,64.86685,28.90727ZM48.9979,51.893c-1.78973-.25462-2.0468-0.11038-2.14726,1.14433-0.12527,1.56475.449,2.00726,2.70448,2.08764-0.10361-.51389-0.21921-1.02571-0.30761-1.54219C49.15009,53.01368,49.07767,52.44026,48.9979,51.893ZM18.342,57.63884c0.08108-3.22237-1.01454-5.256-2.51173-5.29158,0.32374,0.86817.7301,1.78625,1.00437,2.74222C17.10273,56.02368,16.75507,57.26322,18.342,57.63884Zm51.28,12.2224a10.08719,10.08719,0,0,0-3.30564-5.60483,2.49036,2.49036,0,0,0-1.0296.41828C68.13292,65.27234,67.15642,68.668,69.622,69.86123ZM34.73043,53.442l1.19485,2.099a2.63106,2.63106,0,0,0,.88879-0.87085,15.81418,15.81418,0,0,0-.94087-2.35353Zm-2.94584-.91118c0.26465,1.24718.5147,2.42561,0.76475,3.604C33.86117,54.48217,33.33919,52.57325,31.78459,52.53086ZM52.93812,54.5836l-1.0945-2.52393a2.64365,2.64365,0,0,0-.85336.91817C50.7903,54.06957,51.18263,54.79121,52.93812,54.5836ZM39.34,52.19572l-0.60967-.14455a22.9712,22.9712,0,0,0-.21538,2.919,3.59677,3.59677,0,0,0,1.28011.92846C39.60562,54.35718,39.4728,53.27645,39.34,52.19572Zm5.32124-.1965-0.73257.10831c0.05212,0.88369.08314,1.77,0.19037,2.64692a2.296,2.296,0,0,0,.76062.16266c-0.0016-.81695.00785-1.6342-0.01444-2.45058A1.40624,1.40624,0,0,0,44.66124,51.99922Zm-23.16533.316-0.5921.175,1.37637,4.68166,0.72884-.21241ZM29.814,52.67l-0.71929.05719c0.03531,0.92.04034,1.84311,0.1326,2.75737a0.55742,0.55742,0,0,0,1.09745-.069C30.20206,54.494,29.99373,53.58388,29.814,52.67Zm58.01819,0.17126,0.723-.07416a2.20977,2.20977,0,0,0-.53-2.83011l-0.6558.12789Zm-5.5368,2.77658,1.02874-.09383C83.2,54.7993,83.10346,54.06718,82.913,53.36038a3.00645,3.00645,0,0,0-.88418-0.01525Zm-6.48049,2.31346-0.79379.58505,1.63472,2.01344,0.48752-.39891Z"></path><path d="M15.45357,48.56478c-1.698-.02853-3.40185.014-5.09045-0.12684a4.49076,4.49076,0,0,1-1.55726-.88406,3.34839,3.34839,0,0,1,1.36358-.95732c3.20789,0.0804,6.41512.25746,9.61507,0.50185a3.25376,3.25376,0,0,1,1.22795.94128,3.89853,3.89853,0,0,1-1.51683.93414,36.07819,36.07819,0,0,1-4.04242-.31663Z"></path><path d="M87.15318,45.45414c-0.78147.483-1.56951,0.95576-2.34307,1.45111-1.772,1.13464-3.527,2.29609-5.311,3.41129a4.29487,4.29487,0,0,1-1.5997.686,1.433,1.433,0,0,1-1.114-.53493,1.11574,1.11574,0,0,1,.33908-1.017c2.74016-1.68713,5.4955-3.35354,8.30938-4.91246,0.38844-.2152,1.11647.18254,1.68727,0.29652Z"></path><path d="M27.66749,49.15556a20.32929,20.32929,0,0,1-2.49294-.46446,1.28185,1.28185,0,0,1-.733-0.7968,1.48212,1.48212,0,0,1,.89483-0.89083,34.39286,34.39286,0,0,1,4.571.025,2.99042,2.99042,0,0,1,1.13523.91456,3.04877,3.04877,0,0,1-1.009,1.01713A13.03623,13.03623,0,0,1,27.66749,49.15556Z"></path><path d="M68.35567,54.93642c1.47191-.638,2.5347-1.10469,3.61576-1.52422a3.21066,3.21066,0,0,1,.36934.78721A26.51027,26.51027,0,0,1,69.6,55.96576,5.58953,5.58953,0,0,1,68.35567,54.93642Z"></path></g></svg></g></svg>