<svg xmlns="http://www.w3.org/2000/svg" xmlns:xlink="http://www.w3.org/1999/xlink" width="100" height="100" viewBox="0 0 100 100"><circle stroke="none" fill="#3c4a58" r="48%" cx="50%" cy="50%"></circle><g transform="translate(50 50) scale(0.69 0.69) rotate(0) translate(-50 -50)" style="fill:#d2b773"><svg fill="#d2b773" xmlns="http://www.w3.org/2000/svg" xmlns:xlink="http://www.w3.org/1999/xlink" version="1.0" x="0px" y="0px" viewBox="0 0 500 500" style="enable-background:new 0 0 500 500;" xml:space="preserve"><g><g><g><path d="M153.45,382.56c-24.22,2.6-48.65-12-58.67-34.01c-9.8-21.5-5.35-49.03,13.38-64.29c9.51-7.75,22.55-11.07,34.51-7.94     c5.35,1.4,10.5,4,14.23,8.16c1.79,2,3.27,4.32,3.85,6.98c0.52,2.38,1.02,3.81-1.39,1.68c-3.99-3.53-5.6-11.28-6.66-16.23     c-1.46-6.82-1.6-14.13-0.31-20.99c2.27-12.16,8.45-22.89,17.69-31.09c9.89-8.78,23.74-14.42,37.09-12.87     c12.4,1.44,23.93,10.67,23.72,23.9c4.72,0,9.43,0,14.15,0c-4.68-37.61,20.83-73.39,59.26-77.76     c18.77-2.14,38.32,3.47,51.08,17.84c12.83,14.45,18.13,35.46,17.05,54.41c-1.21,21.24-12.39,41.22-31.52,51.14     c3.5,3.5,7,7,10.49,10.49c6.79-9.68,22.7-7.3,32-3.52c11.5,4.67,21.09,14.07,26.2,25.35c10.96,24.18-1.76,53.79-25.18,64.85     c-14.12,6.67-30.24,5.93-44.8,1.18c-7.59-2.47-12.78,9.42-5.49,13.02c32.7,16.14,74.53,0.21,89-33.05     c6.85-15.74,8.07-33.94,1.5-50.01c-6.54-15.99-19.31-28.84-35.28-35.46c-17.11-7.09-39.79-6.72-51.2,9.89     c-4.6,6.69,4.17,13.85,10.49,10.49c43.05-22.85,49.25-84.46,22.5-122.12c-27.71-39.01-87.22-37.59-118.76-3.98     c-17.41,18.55-24.91,44.09-21.24,69.09c1.18,8,13.94,5.91,13.89-1.88c-0.11-16.55-11.8-30.49-27.18-35.64     c-16.25-5.44-34.97-0.97-48.97,8.24c-13.53,8.9-23.87,22.38-28.42,37.97c-4.82,16.52-3.61,37.27,5.8,52.09     c4.36,6.87,12.74,11.78,20.77,7.84c8.06-3.95,8.37-13.59,5.4-21.04c-6.24-15.64-24.21-23.36-40.2-22.83     c-34.65,1.15-57.76,35.42-54.38,68.22c1.9,18.45,10.57,35.29,25.42,46.57c14.61,11.1,32.13,14.98,50.18,12.69     C158.09,389.37,158.23,382.04,153.45,382.56L153.45,382.56z"></path></g></g><g><g><path d="M148.46,251.35c-2.21-2.64-4.89-4.63-7.26-7.11c-2.74-2.87-4.88-6.38-6.64-9.92c-3.63-7.32-4.81-15.81-5.25-23.87     c-0.9-16.24-0.88-34.3,9.36-47.86c16.79-22.24,48.91-28.12,74.4-20.13c13.65,4.28,25.85,12.8,33.6,24.93     c5.25,8.22,18.48,0.53,13.11-7.67c-18.27-27.88-53.26-39.5-85.33-33.44c-16.95,3.2-33.73,12.13-44.73,25.58     c-13.06,15.96-14.75,36.06-13.81,55.94c0.54,11.36,2.28,22.77,7.75,32.89c4.28,7.92,12.45,17.07,22.1,17.14     C149.3,257.85,150.49,253.77,148.46,251.35L148.46,251.35z"></path></g></g><g><g><path d="M84.76,121.62c4.17,5.34,10.46,9.87,16.36,13.16c5.34,2.98,13.06,7.84,19.31,5.81c2.63-0.86,4.82-4.42,2.86-7.02     c-3.83-5.09-10.75-6.1-16.3-8.82c-5.94-2.91-11.39-6.53-17.22-9.6C85.38,112.84,81.96,118.04,84.76,121.62L84.76,121.62z"></path></g></g><g><g><path d="M171.68,63.74c0.24,3.96,0.06,7.64,0.58,11.62c0.54,4.12,0.99,8.26,1.46,12.39c0.42,3.73,0.76,7.47,1.01,11.22     c0.27,4.09,0.04,8.16,2.42,11.68c1.79,2.66,6.19,3.23,7.85,0c3.53-6.86,0.41-17.01-0.86-24.31c-0.75-4.33-1.75-8.57-2.91-12.8     c-1.12-4.13-2.95-7.31-4.66-11.12C175.51,60.03,171.53,61.23,171.68,63.74L171.68,63.74z"></path></g></g><g><g><path d="M253.51,125.55c5.92-3.54,10.5-9.74,13.95-15.61c3.28-5.58,8.21-13.58,7.6-20.25c-0.53-5.85-7.05-7.28-10.48-2.84     c-3.59,4.65-4.62,11.82-7.35,17.11c-2.83,5.49-6.59,10.59-9.08,16.22C246.67,123.54,249.85,127.74,253.51,125.55L253.51,125.55z"></path></g></g><g><g><path d="M102.09,220.02c-5.78-3.41-13.53-4.33-20.11-5.15c-7.11-0.89-14.9-2.25-22.03-1.3c-5.82,0.78-8.65,10.04-1.55,11.42     c7.07,1.37,14.49,1.07,21.66,1.73c6.81,0.63,14.28,1.96,21.04,0.76C104.69,226.84,104.91,221.69,102.09,220.02L102.09,220.02z"></path></g></g><g><g><path d="M153.45,382.56c-24.22,2.6-48.65-12-58.67-34.01c-9.8-21.5-5.35-49.03,13.38-64.29c9.51-7.75,22.55-11.07,34.51-7.94     c5.35,1.4,10.5,4,14.23,8.16c1.79,2,3.27,4.32,3.85,6.98c0.52,2.38,1.02,3.81-1.39,1.68c-3.99-3.53-5.6-11.28-6.66-16.23     c-1.46-6.82-1.6-14.13-0.31-20.99c2.27-12.16,8.45-22.89,17.69-31.09c9.89-8.78,23.74-14.42,37.09-12.87     c12.4,1.44,23.93,10.67,23.72,23.9c4.72,0,9.43,0,14.15,0c-4.68-37.61,20.83-73.39,59.26-77.76     c18.77-2.14,38.32,3.47,51.08,17.84c12.83,14.45,18.13,35.46,17.05,54.41c-1.21,21.24-12.39,41.22-31.52,51.14     c3.5,3.5,7,7,10.49,10.49c6.79-9.68,22.7-7.3,32-3.52c11.5,4.67,21.09,14.07,26.2,25.35c10.96,24.18-1.76,53.79-25.18,64.85     c-14.12,6.67-30.24,5.93-44.8,1.18c-7.59-2.47-12.78,9.42-5.49,13.02c32.7,16.14,74.53,0.21,89-33.05     c6.85-15.74,8.07-33.94,1.5-50.01c-6.54-15.99-19.31-28.84-35.28-35.46c-17.11-7.09-39.79-6.72-51.2,9.89     c-4.6,6.69,4.17,13.85,10.49,10.49c43.05-22.85,49.25-84.46,22.5-122.12c-27.71-39.01-87.22-37.59-118.76-3.98     c-17.41,18.55-24.91,44.09-21.24,69.09c1.18,8,13.94,5.91,13.89-1.88c-0.11-16.55-11.8-30.49-27.18-35.64     c-16.25-5.44-34.97-0.97-48.97,8.24c-13.53,8.9-23.87,22.38-28.42,37.97c-4.82,16.52-3.61,37.27,5.8,52.09     c4.36,6.87,12.74,11.78,20.77,7.84c8.06-3.95,8.37-13.59,5.4-21.04c-6.24-15.64-24.21-23.36-40.2-22.83     c-34.65,1.15-57.76,35.42-54.38,68.22c1.9,18.45,10.57,35.29,25.42,46.57c14.61,11.1,32.13,14.98,50.18,12.69     C158.09,389.37,158.23,382.04,153.45,382.56L153.45,382.56z"></path></g></g><g><g><path d="M148.46,251.35c-2.21-2.64-4.89-4.63-7.26-7.11c-2.74-2.87-4.88-6.38-6.64-9.92c-3.63-7.32-4.81-15.81-5.25-23.87     c-0.9-16.24-0.88-34.3,9.36-47.86c16.79-22.24,48.91-28.12,74.4-20.13c13.65,4.28,25.85,12.8,33.6,24.93     c5.25,8.22,18.48,0.53,13.11-7.67c-18.27-27.88-53.26-39.5-85.33-33.44c-16.95,3.2-33.73,12.13-44.73,25.58     c-13.06,15.96-14.75,36.06-13.81,55.94c0.54,11.36,2.28,22.77,7.75,32.89c4.28,7.92,12.45,17.07,22.1,17.14     C149.3,257.85,150.49,253.77,148.46,251.35L148.46,251.35z"></path></g></g><g><g><path d="M84.76,121.62c4.17,5.34,10.46,9.87,16.36,13.16c5.34,2.98,13.06,7.84,19.31,5.81c2.63-0.86,4.82-4.42,2.86-7.02     c-3.83-5.09-10.75-6.1-16.3-8.82c-5.94-2.91-11.39-6.53-17.22-9.6C85.38,112.84,81.96,118.04,84.76,121.62L84.76,121.62z"></path></g></g><g><g><path d="M171.68,63.74c0.24,3.96,0.06,7.64,0.58,11.62c0.54,4.12,0.99,8.26,1.46,12.39c0.42,3.73,0.76,7.47,1.01,11.22     c0.27,4.09,0.04,8.16,2.42,11.68c1.79,2.66,6.19,3.23,7.85,0c3.53-6.86,0.41-17.01-0.86-24.31c-0.75-4.33-1.75-8.57-2.91-12.8     c-1.12-4.13-2.95-7.31-4.66-11.12C175.51,60.03,171.53,61.23,171.68,63.74L171.68,63.74z"></path></g></g><g><g><path d="M253.51,125.55c5.92-3.54,10.5-9.74,13.95-15.61c3.28-5.58,8.21-13.58,7.6-20.25c-0.53-5.85-7.05-7.28-10.48-2.84     c-3.59,4.65-4.62,11.82-7.35,17.11c-2.83,5.49-6.59,10.59-9.08,16.22C246.67,123.54,249.85,127.74,253.51,125.55L253.51,125.55z"></path></g></g><g><g><path d="M102.09,220.02c-5.78-3.41-13.53-4.33-20.11-5.15c-7.11-0.89-14.9-2.25-22.03-1.3c-5.82,0.78-8.65,10.04-1.55,11.42     c7.07,1.37,14.49,1.07,21.66,1.73c6.81,0.63,14.28,1.96,21.04,0.76C104.69,226.84,104.91,221.69,102.09,220.02L102.09,220.02z"></path></g></g><g><g><path d="M98.57,409.36c2.5,2.54,4.98,2.02,8.45,2.04c3.91,0.02,7.81-0.15,11.72-0.22c8.14-0.15,16.3-0.23,24.44-0.24     c16.3-0.02,32.64,0.58,48.91,1.63c7.88,0.51,7.88-11.84,0-12.28c-16.63-0.93-33.24-1.06-49.88-0.42     c-8.17,0.31-16.3,0.91-24.44,1.74c-5.68,0.58-16.02-0.15-19.55,4.96C97.63,407.41,97.89,408.67,98.57,409.36L98.57,409.36z"></path></g></g><g><g><path d="M226.07,413.63c6.85,0.45,13.62-0.39,20.48-0.51c6.52-0.12,13.82,1.36,20.16,0c5.47-1.17,4.29-8.25,0-9.94     c-6.32-2.49-15.41-1.2-22.03-0.45c-7.09,0.8-13.77,1.91-20.14,5.22C221.68,409.43,223.26,413.44,226.07,413.63L226.07,413.63z"></path></g></g><g><g><path d="M293.99,411.06c7.63,2.33,16.46,2.02,24.37,2.26c8.19,0.24,16.39,0.49,24.59,0.61c8.2,0.12,16.39,0.14,24.59,0.21     c8.05,0.07,17.12,1.28,25-0.41c5.03-1.08,4.99-9.01,0-10.12c-7.88-1.76-16.94-0.6-25-0.59c-8.2,0.01-16.39-0.03-24.59,0.03     c-8.19,0.06-16.4,0.24-24.59,0.42c-7.9,0.18-16.74-0.19-24.37,2.08C291.26,406.36,291.29,410.24,293.99,411.06L293.99,411.06z"></path></g></g><g><g><path d="M132.59,438.23c5.11,4.19,14.75,2.29,21.02,2.4c8.14,0.15,16.29,0.11,24.43,0.34c8.14,0.23,16.29,0.5,24.42,0.94     c8.36,0.45,17.01,1.88,25.35,1.6c5.87-0.2,7.7-9.43,1.45-10.68c-8.04-1.61-16.67-1.47-24.85-1.8c-8.46-0.35-16.93-0.57-25.4-0.51     c-8.46,0.06-16.96,0.15-25.41,0.74c-5.96,0.42-16.55-0.6-21.02,3.99C131.85,436,131.69,437.5,132.59,438.23L132.59,438.23z"></path></g></g><g><g><path d="M250.35,438.07c6.33,1.08,12.92,0.45,19.31,0.36c6.87-0.09,13.76-0.15,20.63-0.12c6.56,0.02,13.11,0.18,19.66,0.48     c6.59,0.3,14.36,2.02,20.76,0.08c3.19-0.97,4.47-6.1,1.01-7.71c-6.02-2.79-13.28-2.21-19.8-2.35c-6.88-0.15-13.76-0.15-20.64,0     c-6.9,0.15-13.76,0.49-20.64,1.12c-6.67,0.61-13.96,0.86-20.3,3.18C248.22,433.88,247.61,437.6,250.35,438.07L250.35,438.07z"></path></g></g><g><g><path d="M204.93,466.94c5.74,1.12,11.91-0.4,17.66-1.04c6.02-0.67,12.07-1.06,18.12-1.29c6.07-0.23,12.14-0.24,18.21,0.01     c5.41,0.22,12.76,2.38,17.47-0.85c2.22-1.52,2.94-4.66,0.86-6.7c-4.17-4.09-10.94-3.17-16.41-3.23     c-6.71-0.08-13.44,0.14-20.13,0.68c-6.15,0.5-12.3,1.32-18.38,2.34c-5.94,0.99-13.01,1.8-18.02,5.37     C202.69,463.39,202.56,466.47,204.93,466.94L204.93,466.94z"></path></g></g></g></svg></g></svg>